<svg width="1024" height="1024" viewBox="0 0 1024 1024" fill="none" xmlns="http://www.w3.org/2000/svg">
<path fill-rule="evenodd" clip-rule="evenodd" d="M568.589 1020.91C824.731 992.746 1024 775.644 1024 512C1024 229.23 794.77 0 512 0C229.23 0 0 229.23 0 512C0 773.96 196.733 989.971 450.512 1020.35V804.448C415.414 800.764 384.22 793.693 356.931 783.237C315.123 767.091 281.48 745.179 256.002 717.5C230.525 689.492 211.907 657.695 200.148 622.108C188.716 586.521 183 549.287 183 510.405C183 474.16 187.736 440.385 197.208 409.082C206.681 377.779 220.236 349.441 237.874 324.069C255.512 298.368 276.253 276.621 300.098 258.827L375.06 329.012C358.728 345.158 345.173 363.281 334.394 383.381C323.615 403.48 315.449 424.404 309.897 446.152C304.67 467.899 301.731 489.317 301.077 510.405C301.077 536.766 304.507 562.138 311.366 586.521C318.552 610.575 330.148 632.158 346.153 651.269C362.484 670.051 384.042 685.044 410.826 696.247C422.81 701.053 436.038 704.798 450.512 707.48V386.84C450.512 361.139 456.554 338.732 468.64 319.621C480.725 300.51 497.057 285.517 517.634 274.644C538.212 263.77 561.566 258.333 587.697 258.333C627.219 258.333 662.496 265.582 693.526 280.08C724.882 294.249 751.503 313.855 773.387 338.897C795.272 363.61 811.93 391.948 823.362 423.91C835.121 455.872 841 489.317 841 524.245C841 560.82 835.121 596.077 823.362 630.016C811.603 663.626 792.822 693.94 767.018 720.96C741.541 747.65 707.734 768.738 665.599 784.225C637.587 794.601 605.251 801.501 568.589 804.925V1020.91ZM568.589 708.383C595.518 704.064 618.219 696.394 636.692 685.373C667.395 667.25 689.279 643.855 702.345 615.188C715.737 586.192 722.433 555.877 722.433 524.245C722.433 501.179 719.493 479.432 713.614 459.002C708.061 438.243 700.058 419.956 689.606 404.139C679.154 388.323 666.089 375.967 650.41 367.07C635.059 357.844 617.257 353.231 597.006 353.231C586.227 353.231 578.715 356.526 574.468 363.116C570.549 369.377 568.589 376.131 568.589 383.381V708.383Z" fill="#D52941"/>
</svg>
